<svg version="1.1" xmlns="http://www.w3.org/2000/svg" xmlns:xlink="http://www.w3.org/1999/xlink" class="thumbnail-icon" viewBox="0 0 200 200"><g data-paper-data="{&quot;fillRule&quot;:&quot;nonzero&quot;,&quot;isIcon&quot;:true,&quot;iconStyle&quot;:&quot;standalone&quot;,&quot;selectedEffects&quot;:{&quot;container&quot;:&quot;circle_simple_filled&quot;,&quot;transformation&quot;:&quot;&quot;,&quot;pattern&quot;:&quot;&quot;},&quot;bounds&quot;:{&quot;x&quot;:209.8076193367231,&quot;y&quot;:134.8357744554906,&quot;width&quot;:130.38476132655384,&quot;height&quot;:130.38476132655387},&quot;widthRatioIconToContainer&quot;:0.8588998947330948,&quot;heightRatioIconToContainer&quot;:0.872551131698748,&quot;relativeBoundsIconToContainer&quot;:{&quot;top&quot;:0.0005351297988334217,&quot;left&quot;:0.017285290762803402},&quot;iconType&quot;:&quot;icon&quot;,&quot;rawIconId&quot;:&quot;9a885d09-ad6d-4348-b213-56e8d3042c32&quot;,&quot;isDetailed&quot;:false,&quot;blockLetter&quot;:&quot;O&quot;}"><path d="M0,100c0,-55.22847 44.77153,-100 100,-100c55.22847,0 100,44.77153 100,100c0,55.22847 -44.77153,100 -100,100c-55.22847,0 -100,-44.77153 -100,-100zM94.35157,187.36214v-15.70592c-8.14381,-0.1939 -15.70592,-1.939 -22.88023,-4.6536v-133.98508c7.17431,-2.7146 14.73642,-4.4597 22.88023,-4.6536v-15.51202c-34.32034,1.1634 -63.59928,21.91073 -76.7845,51.57747h17.25712c5.23531,-9.11331 12.40961,-17.06323 21.13513,-23.07413v117.30965c-8.72551,-6.01091 -15.89982,-13.96082 -21.13513,-23.07413h-17.25712c13.18522,29.66674 42.46416,50.60797 76.7845,51.77136zM104.90662,187.36214c5.43524,-0.19412 10.48226,-0.77647 15.52927,-1.94116v-51.82895l53.38188,-30.67032c-0.77647,21.9351 -11.45284,41.34669 -27.75858,53.96423l11.06461,11.06461c19.60571,-16.11162 32.22324,-40.57023 32.22324,-67.74646c0,-25.04095 -10.48226,-47.55841 -27.17623,-63.47591l-11.06461,11.06461c10.67638,9.89991 18.24689,23.0998 21.35276,37.85261l-52.02307,30.08797v-100.94028c-5.04701,-1.1647 -10.09403,-1.74704 -15.52927,-1.94116z" fill-rule="nonzero"></path></g></svg>