<svg version="1.1" xmlns="http://www.w3.org/2000/svg" xmlns:xlink="http://www.w3.org/1999/xlink" class="thumbnail-icon" viewBox="1.5645217895507812 0 196.8709716796875 200"><g data-paper-data="{&quot;fillRule&quot;:&quot;nonzero&quot;,&quot;isIcon&quot;:&quot;true&quot;,&quot;iconType&quot;:&quot;icon&quot;,&quot;rawIconId&quot;:&quot;9a885d09-ad6d-4348-b213-56e8d3042c32&quot;,&quot;selectedEffects&quot;:{&quot;container&quot;:&quot;&quot;,&quot;transformation&quot;:&quot;&quot;,&quot;pattern&quot;:&quot;&quot;},&quot;isDetailed&quot;:false,&quot;bounds&quot;:{&quot;x&quot;:205.1981841355522,&quot;y&quot;:131.46431861699114,&quot;width&quot;:139.60363172889566,&quot;height&quot;:141.82247267844446},&quot;iconStyle&quot;:&quot;standalone&quot;}"><path d="M89.56452,200v-18c-9.33333,-0.22222 -18,-2.22222 -26.22222,-5.33333v-153.55556c8.22222,-3.11111 16.88889,-5.11111 26.22222,-5.33333v-17.77778c-39.33333,1.33333 -72.88889,25.11111 -88,59.11111h19.77778c6,-10.44444 14.22222,-19.55556 24.22222,-26.44444v134.44444c-10,-6.88889 -18.22222,-16 -24.22222,-26.44444h-19.77778c15.11111,34 48.66667,58 88,59.33333zM101.66129,0v200c6.22914,-0.22247 12.01335,-0.88988 17.79755,-2.22469v-59.39933l61.17909,-35.15017c-0.88988,25.13904 -13.1257,47.38598 -31.81313,61.8465l12.68076,12.68076c22.46941,-18.46496 36.92992,-46.49611 36.92992,-77.64182c0,-28.69855 -12.01335,-54.50501 -31.14572,-72.7475l-12.68076,12.68076c12.23582,11.34594 20.91212,26.47386 24.47164,43.38154l-59.6218,34.48276v-115.68409c-5.7842,-1.33482 -11.56841,-2.00222 -17.79755,-2.22469z" fill-rule="nonzero"></path></g></svg>