<svg xmlns="http://www.w3.org/2000/svg" viewBox="0 0 512 512"><title>Smart_Phone04</title><g id="Smart_Phone_04" data-name="Smart Phone 04"><g id="Smart_Phone_04-2" data-name="Smart Phone 04"><path d="M326.8519,74.2059H185.1577a42.2849,42.2849,0,0,0-42.2416,42.2407V395.5582a42.2894,42.2894,0,0,0,42.2416,42.2359H326.8519a42.2818,42.2818,0,0,0,42.232-42.2359V116.4418A42.2849,42.2849,0,0,0,326.8519,74.2059Zm22.1263,321.3523a22.1623,22.1623,0,0,1-22.1263,22.13H185.1577a22.1644,22.1644,0,0,1-22.1359-22.13v-30.65H348.9782v30.65Zm0-50.7652H163.0218v-196.07H348.9782v196.07Zm0-216.1753H163.0218V116.4466a22.1572,22.1572,0,0,1,22.1359-22.1254H326.8519a22.1551,22.1551,0,0,1,22.1263,22.1254Z"/><rect x="242.314" y="104.8692" width="27.3768" height="13.4102"/><rect x="227.9126" y="380.5727" width="56.1747" height="20.1106"/></g></g></svg>