<svg xmlns="http://www.w3.org/2000/svg" width="124" height="123" fill="none"><path fill="#052043" d="m48.774 113.894-1.795 5.823-1.967-.607c-.455-.14-.804-.333-1.048-.578a1.56 1.56 0 0 1-.453-.834 2.047 2.047 0 0 1 .072-.983c.106-.343.27-.626.492-.848a1.55 1.55 0 0 1 .838-.426c.336-.061.73-.021 1.181.118l1.592.491-.196.636-1.57-.483c-.31-.096-.575-.128-.792-.095a.904.904 0 0 0-.534.258c-.14.142-.245.33-.317.563a1.43 1.43 0 0 0-.058.651.932.932 0 0 0 .294.533c.162.155.4.282.714.379l1.24.382 1.602-5.197.705.217Zm-3.547 1.771-.627-3.057.82.252.603 3.05-.796-.245Zm-6.636-5.581-2.935 5.338-3.222-1.771.315-.574 2.576 1.416.992-1.804-2.41-1.324.316-.573 2.409 1.324.997-1.814-2.617-1.439.316-.574 3.263 1.795Zm-15.657-5.825.557.484a1.539 1.539 0 0 0-.164 1.135 1.7 1.7 0 0 0 .22.523c.105.164.233.312.386.445.278.242.591.391.94.447a1.95 1.95 0 0 0 1.077-.156c.37-.159.728-.438 1.074-.836.346-.398.572-.791.679-1.18.105-.389.106-.752.004-1.088a1.86 1.86 0 0 0-.573-.869 2.04 2.04 0 0 0-.495-.319 1.695 1.695 0 0 0-.546-.148 1.56 1.56 0 0 0-1.103.322l-.557-.484a2.44 2.44 0 0 1 .777-.432 2.29 2.29 0 0 1 1.635.074c.263.109.51.265.742.466.392.341.657.74.796 1.197.139.457.142.939.01 1.444-.132.506-.409 1.001-.83 1.486-.422.485-.874.827-1.356 1.028-.482.201-.96.265-1.431.191a2.553 2.553 0 0 1-1.296-.622 2.75 2.75 0 0 1-.566-.669 2.362 2.362 0 0 1-.296-.779 2.24 2.24 0 0 1-.004-.83c.05-.281.156-.557.32-.83Zm-7.526-10.584c.518-.38 1.034-.615 1.549-.705.514-.09.994-.046 1.438.13.444.176.82.473 1.127.892.307.42.478.867.513 1.343.034.477-.069.947-.309 1.41-.24.465-.619.887-1.137 1.267-.518.38-1.035.615-1.55.704-.514.09-.993.047-1.437-.13a2.553 2.553 0 0 1-1.127-.892 2.553 2.553 0 0 1-.513-1.343 2.613 2.613 0 0 1 .308-1.41c.24-.464.62-.886 1.138-1.266Zm.422.576c-.425.312-.732.646-.92 1.003-.19.355-.271.71-.244 1.06.025.35.147.675.365.972.218.297.491.512.819.643.326.13.688.158 1.085.086.396-.074.806-.267 1.232-.579.425-.312.732-.646.922-1.001.188-.357.27-.71.244-1.06a1.86 1.86 0 0 0-.368-.975 1.844 1.844 0 0 0-.817-.64 1.919 1.919 0 0 0-1.085-.086c-.397.072-.808.265-1.233.577Zm-6.997-5.795-.344-.81 3.846-3.882-.027-.066-5.464.07-.345-.81 5.609-2.38.27.635-4.262 1.808.024.055 5.004-.056.26.613-3.516 3.562.023.054 4.26-1.808.27.635-5.608 2.38Zm1.339-14.512L4.177 75.03l-.655-3.618.644-.117.524 2.892 2.025-.367-.49-2.704.644-.117.49 2.705 2.038-.37-.533-2.938.644-.117.664 3.665ZM2.92 58.124l6.09.205-.025.714L4.092 62.2l-.002.059 4.78.161-.024.738-6.089-.206.024-.713 4.905-3.168.002-.06-4.792-.162.024-.725Zm7.501-8.596-.476 1.819-5.894-1.543.497-1.899c.15-.572.396-1.03.739-1.375.34-.346.758-.57 1.254-.67.495-.103 1.047-.075 1.657.085.614.16 1.114.408 1.5.743.384.334.64.742.768 1.222.127.48.112 1.02-.045 1.618Zm-.922.94.277-1.06c.128-.487.14-.915.035-1.285a1.796 1.796 0 0 0-.615-.927c-.306-.248-.7-.435-1.179-.56-.476-.125-.906-.154-1.29-.089a1.777 1.777 0 0 0-.976.489c-.267.26-.461.62-.581 1.08l-.299 1.14L9.5 50.469Zm4.259-10.62-.35.69-4.424-4.75.345-.678 6.445.757-.35.69-5.397-.694-.022.043 3.752 3.942Zm-1.994-1.33 1.409-2.782.583.296-1.409 2.781-.583-.296Zm8.52-9.306-1.185 1.46-4.73-3.84 1.238-1.525c.372-.458.786-.774 1.24-.947a2.395 2.395 0 0 1 1.42-.092c.492.11.983.365 1.473.762.493.4.846.832 1.059 1.297.211.463.277.94.195 1.43-.083.49-.32.975-.71 1.455Zm-1.228.474.69-.85c.318-.39.505-.776.563-1.156a1.797 1.797 0 0 0-.177-1.098c-.177-.352-.457-.685-.842-.997-.382-.31-.761-.515-1.138-.614a1.777 1.777 0 0 0-1.091.042c-.35.126-.676.374-.976.744l-.743.914 3.714 3.015Zm10.206-13.339c.397.505.65 1.013.757 1.524.107.512.08.992-.081 1.442a2.56 2.56 0 0 1-.854 1.157 2.56 2.56 0 0 1-1.325.557 2.612 2.612 0 0 1-1.42-.26c-.472-.224-.906-.59-1.304-1.094-.397-.505-.65-1.013-.756-1.524a2.612 2.612 0 0 1 .08-1.442c.161-.45.446-.835.854-1.156.409-.322.85-.508 1.325-.558a2.61 2.61 0 0 1 1.42.26c.472.224.907.59 1.304 1.094Zm-.561.442c-.326-.415-.671-.71-1.034-.886a1.918 1.918 0 0 0-1.068-.208 1.84 1.84 0 0 0-.959.398c-.29.228-.495.508-.615.84-.118.33-.135.693-.049 1.087.087.393.294.797.62 1.212.326.414.67.71 1.032.887.363.176.72.246 1.068.208.35-.038.671-.172.961-.4.29-.228.494-.507.613-.838a1.92 1.92 0 0 0 .049-1.087c-.086-.394-.292-.799-.618-1.213ZM53.12 8.423a1.27 1.27 0 0 1-.677-.064 1.367 1.367 0 0 1-.548-.39 1.27 1.27 0 0 1-.282-.62 1.26 1.26 0 0 1 .064-.677c.084-.216.215-.398.39-.546.177-.15.383-.245.62-.285a1.318 1.318 0 0 1 1.508 1.074c.04.236.017.462-.068.678a1.343 1.343 0 0 1-.387.547 1.26 1.26 0 0 1-.62.283Zm24.052 2.39 1.94-5.776 1.952.656c.451.151.795.353 1.033.604.239.25.382.532.432.845.05.314.017.64-.097.981-.115.34-.286.619-.513.835a1.55 1.55 0 0 1-.849.406c-.337.051-.73.002-1.177-.148l-1.58-.53.213-.632 1.556.523c.309.103.572.142.79.114.22-.026.4-.108.541-.245.143-.138.253-.323.33-.554.078-.231.103-.448.075-.65a.933.933 0 0 0-.28-.54c-.158-.16-.393-.291-.705-.396l-1.23-.413-1.731 5.155-.7-.235Zm3.59-1.682.55 3.072-.812-.273-.527-3.064.79.265Zm6.494 5.747 3.069-5.264 3.176 1.852-.33.565-2.539-1.48-1.036 1.779 2.374 1.384-.33.565-2.374-1.384-1.043 1.789 2.58 1.504-.329.565-3.218-1.875Zm15.507 6.215-.545-.498c.111-.186.181-.375.208-.567.03-.191.024-.38-.016-.564a1.676 1.676 0 0 0-.207-.528 2.035 2.035 0 0 0-.374-.455 1.858 1.858 0 0 0-.929-.47 1.944 1.944 0 0 0-1.08.128c-.374.15-.739.42-1.095.81-.356.389-.592.776-.708 1.162a1.94 1.94 0 0 0-.031 1.088c.095.34.278.634.55.883.15.136.312.247.487.332.175.084.356.138.542.16a1.568 1.568 0 0 0 1.111-.293l.545.498c-.251.192-.514.33-.788.412a2.289 2.289 0 0 1-1.633-.115 2.741 2.741 0 0 1-.73-.485 2.554 2.554 0 0 1-.765-1.217 2.612 2.612 0 0 1 .026-1.443c.144-.502.433-.99.867-1.464s.894-.806 1.381-.995a2.62 2.62 0 0 1 1.436-.155 2.56 2.56 0 0 1 1.28.655c.226.207.409.435.548.683.14.25.233.511.277.786.046.273.04.55-.017.83a2.45 2.45 0 0 1-.34.822Zm7.258 10.769c-.528.367-1.05.59-1.566.666a2.616 2.616 0 0 1-1.435-.165 2.557 2.557 0 0 1-1.104-.92 2.554 2.554 0 0 1-.479-1.356 2.607 2.607 0 0 1 .344-1.403c.251-.457.641-.87 1.168-1.237.528-.367 1.05-.588 1.567-.665a2.613 2.613 0 0 1 1.434.165c.439.187.807.494 1.104.92.297.427.457.879.479 1.356.023.477-.092.945-.343 1.402-.252.458-.642.87-1.169 1.237Zm-.408-.586c.433-.3.748-.628.945-.98.199-.35.289-.702.271-1.054a1.85 1.85 0 0 0-.341-.98 1.858 1.858 0 0 0-.803-.663c-.322-.138-.683-.176-1.082-.114-.398.064-.813.247-1.246.548-.433.302-.749.628-.947.978a1.944 1.944 0 0 0-.27 1.054c.018.353.132.68.343.983.21.303.477.523.8.66.324.14.685.178 1.083.114.398-.063.814-.244 1.247-.546Zm6.849 5.969.324.819-3.942 3.784.026.066 5.464.067.324.819-5.666 2.24-.254-.643 4.305-1.701-.022-.055-5.004-.07-.245-.62 3.605-3.471-.022-.056-4.305 1.702-.254-.642 5.666-2.24ZM114.76 51.72l6.02-.935.565 3.633-.647.1-.451-2.904-2.034.316.422 2.716-.647.1-.422-2.715-2.046.317.459 2.952-.647.1-.572-3.68Zm6.853 15.996-6.082-.358.042-.712 4.97-3.033.004-.06-4.775-.28.043-.737 6.082.358-.042.712-4.983 3.045-.003.059 4.787.282-.043.724Zm-7.714 8.405.521-1.806 5.854 1.69-.545 1.886c-.164.568-.421 1.02-.772 1.356a2.4 2.4 0 0 1-1.272.64c-.496.09-1.047.047-1.653-.128-.61-.176-1.104-.436-1.481-.78a2.411 2.411 0 0 1-.738-1.241c-.114-.483-.086-1.022.086-1.617Zm.945-.916-.303 1.052c-.14.484-.162.912-.067 1.284.094.372.292.686.591.942.3.256.688.453 1.165.59.472.137.901.177 1.287.12.387-.054.717-.21.988-.463.274-.253.476-.609.608-1.066l.327-1.132-4.596-1.327Zm-4.523 10.51.366-.681 4.304 4.858-.361.67-6.425-.918.367-.681 5.378.829.023-.043-3.652-4.034Zm1.96 1.38-1.479 2.745-.576-.31 1.478-2.746.577.31Zm-8.751 9.089 1.221-1.43 4.632 3.957-1.275 1.493c-.384.45-.805.755-1.264.916a2.389 2.389 0 0 1-1.422.057c-.489-.123-.974-.39-1.453-.799-.483-.413-.825-.853-1.026-1.323a2.415 2.415 0 0 1-.159-1.435c.095-.487.344-.966.746-1.436Zm1.239-.444-.711.833c-.327.383-.524.763-.592 1.141-.067.378-.017.746.15 1.103.167.356.44.696.817 1.018.373.319.748.533 1.122.642.376.109.74.105 1.092-.014.353-.118.685-.358.994-.72l.765-.896-3.637-3.107Zm-10.536 13.08c-.385-.515-.624-1.029-.718-1.543a2.612 2.612 0 0 1 .117-1.439 2.55 2.55 0 0 1 .882-1.135 2.546 2.546 0 0 1 1.339-.524c.476-.039.947.059 1.413.296.466.236.891.611 1.276 1.126.384.515.624 1.029.718 1.543.094.514.055.993-.117 1.439a2.554 2.554 0 0 1-.883 1.134 2.556 2.556 0 0 1-1.338.525 2.611 2.611 0 0 1-1.413-.296c-.466-.236-.892-.612-1.276-1.126Zm.572-.428c.315.423.653.727 1.011.912a1.92 1.92 0 0 0 1.063.235c.35-.029.672-.154.968-.374.296-.221.508-.496.636-.824.127-.328.152-.69.076-1.086-.077-.395-.274-.804-.59-1.227-.315-.422-.651-.727-1.008-.913-.359-.185-.713-.264-1.063-.235-.352.03-.675.155-.97.376a1.847 1.847 0 0 0-.634.822 1.92 1.92 0 0 0-.076 1.086c.075.396.271.806.587 1.228Zm-21.777 7.007a1.27 1.27 0 0 1 .68-.02c.224.058.422.164.592.32.17.157.288.35.356.58.07.232.076.459.02.68a1.347 1.347 0 0 1-.321.59c-.156.17-.35.29-.579.358-.232.07-.459.075-.681.017a1.31 1.31 0 0 1-.588-.318 1.241 1.241 0 0 1-.36-.579 1.253 1.253 0 0 1-.016-.681c.055-.223.161-.42.317-.591a1.26 1.26 0 0 1 .58-.356Z"/></svg>